<?xml version="1.0" encoding="UTF-8" standalone="no"?>
<!DOCTYPE svg PUBLIC "-//W3C//DTD SVG 1.1//EN"
 "http://www.w3.org/Graphics/SVG/1.1/DTD/svg11.dtd">
<!-- Generated by graphviz version 2.38.0 (20140413.2041)
 -->
<!-- Title: Perl Pages: 1 -->
<svg width="1314pt" height="672pt"
 viewBox="0.00 0.00 1314.22 672.00" xmlns="http://www.w3.org/2000/svg" xmlns:xlink="http://www.w3.org/1999/xlink">
<g id="graph0" class="graph" transform="scale(1 1) rotate(0) translate(4 668)">
<title>Perl</title>
<polygon fill="white" stroke="none" points="-4,4 -4,-668 1310.22,-668 1310.22,4 -4,4"/>
<!-- asset_types -->
<g id="node1" class="node"><title>asset_types</title>
<path fill="none" stroke="blue" d="M48.7244,-350.5C48.7244,-350.5 201.724,-350.5 201.724,-350.5 207.724,-350.5 213.724,-356.5 213.724,-362.5 213.724,-362.5 213.724,-453.5 213.724,-453.5 213.724,-459.5 207.724,-465.5 201.724,-465.5 201.724,-465.5 48.7244,-465.5 48.7244,-465.5 42.7244,-465.5 36.7244,-459.5 36.7244,-453.5 36.7244,-453.5 36.7244,-362.5 36.7244,-362.5 36.7244,-356.5 42.7244,-350.5 48.7244,-350.5"/>
<text text-anchor="middle" x="76.2244" y="-404.3" font-family="Times,serif" font-size="14.00">asset_types</text>
<polyline fill="none" stroke="blue" points="115.724,-350.5 115.724,-465.5 "/>
<text text-anchor="middle" x="164.724" y="-450.3" font-family="Times,serif" font-size="14.00">1: file_name</text>
<polyline fill="none" stroke="blue" points="115.724,-442.5 213.724,-442.5 "/>
<text text-anchor="middle" x="164.724" y="-427.3" font-family="Times,serif" font-size="14.00">2: file_path</text>
<polyline fill="none" stroke="blue" points="115.724,-419.5 213.724,-419.5 "/>
<text text-anchor="middle" x="164.724" y="-404.3" font-family="Times,serif" font-size="14.00">3: id</text>
<polyline fill="none" stroke="blue" points="115.724,-396.5 213.724,-396.5 "/>
<text text-anchor="middle" x="164.724" y="-381.3" font-family="Times,serif" font-size="14.00">4: name</text>
<polyline fill="none" stroke="blue" points="115.724,-373.5 213.724,-373.5 "/>
<text text-anchor="middle" x="164.724" y="-358.3" font-family="Times,serif" font-size="14.00">5: upper_name</text>
</g>
<!-- assets -->
<g id="node2" class="node"><title>assets</title>
<path fill="none" stroke="blue" d="M48.7244,-537C48.7244,-537 177.724,-537 177.724,-537 183.724,-537 189.724,-543 189.724,-549 189.724,-549 189.724,-640 189.724,-640 189.724,-646 183.724,-652 177.724,-652 177.724,-652 48.7244,-652 48.7244,-652 42.7244,-652 36.7244,-646 36.7244,-640 36.7244,-640 36.7244,-549 36.7244,-549 36.7244,-543 42.7244,-537 48.7244,-537"/>
<text text-anchor="middle" x="61.2244" y="-590.8" font-family="Times,serif" font-size="14.00">assets</text>
<polyline fill="none" stroke="blue" points="85.7244,-537 85.7244,-652 "/>
<text text-anchor="middle" x="137.724" y="-636.8" font-family="Times,serif" font-size="14.00">1: asset_type_id</text>
<polyline fill="none" stroke="blue" points="85.7244,-629 189.724,-629 "/>
<text text-anchor="middle" x="137.724" y="-613.8" font-family="Times,serif" font-size="14.00">2: design_id</text>
<polyline fill="none" stroke="blue" points="85.7244,-606 189.724,-606 "/>
<text text-anchor="middle" x="137.724" y="-590.8" font-family="Times,serif" font-size="14.00">3: id</text>
<polyline fill="none" stroke="blue" points="85.7244,-583 189.724,-583 "/>
<text text-anchor="middle" x="137.724" y="-567.8" font-family="Times,serif" font-size="14.00">4: page_id</text>
<polyline fill="none" stroke="blue" points="85.7244,-560 189.724,-560 "/>
<text text-anchor="middle" x="137.724" y="-544.8" font-family="Times,serif" font-size="14.00">5: site_id</text>
</g>
<!-- assets&#45;&gt;asset_types -->
<g id="edge1" class="edge"><title>assets:port1&#45;&gt;asset_types:port0:w</title>
<path fill="none" stroke="grey" d="M191.224,-640.5C237.449,-640.5 215.384,-575.277 190.224,-536.5 149.252,-473.352 77.437,-528.992 36.2244,-466 30.9864,-457.994 25.8719,-429.923 28.853,-415.981"/>
<polygon fill="grey" stroke="grey" points="31.7208,-417.999 35.2244,-408 26.2502,-413.632 31.7208,-417.999"/>
</g>
<!-- designs -->
<g id="node4" class="node"><title>designs</title>
<path fill="none" stroke="blue" d="M483.224,-106.5C483.224,-106.5 663.224,-106.5 663.224,-106.5 669.224,-106.5 675.224,-112.5 675.224,-118.5 675.224,-118.5 675.224,-278.5 675.224,-278.5 675.224,-284.5 669.224,-290.5 663.224,-290.5 663.224,-290.5 483.224,-290.5 483.224,-290.5 477.224,-290.5 471.224,-284.5 471.224,-278.5 471.224,-278.5 471.224,-118.5 471.224,-118.5 471.224,-112.5 477.224,-106.5 483.224,-106.5"/>
<text text-anchor="middle" x="499.724" y="-194.8" font-family="Times,serif" font-size="14.00">designs</text>
<polyline fill="none" stroke="blue" points="528.224,-106.5 528.224,-290.5 "/>
<text text-anchor="middle" x="601.724" y="-275.3" font-family="Times,serif" font-size="14.00">1: id</text>
<polyline fill="none" stroke="blue" points="528.224,-267.5 675.224,-267.5 "/>
<text text-anchor="middle" x="601.724" y="-252.3" font-family="Times,serif" font-size="14.00">2: menu_orientation_id</text>
<polyline fill="none" stroke="blue" points="528.224,-244.5 675.224,-244.5 "/>
<text text-anchor="middle" x="601.724" y="-229.3" font-family="Times,serif" font-size="14.00">3: name</text>
<polyline fill="none" stroke="blue" points="528.224,-221.5 675.224,-221.5 "/>
<text text-anchor="middle" x="601.724" y="-206.3" font-family="Times,serif" font-size="14.00">4: os_type_id</text>
<polyline fill="none" stroke="blue" points="528.224,-198.5 675.224,-198.5 "/>
<text text-anchor="middle" x="601.724" y="-183.3" font-family="Times,serif" font-size="14.00">5: output_directory</text>
<polyline fill="none" stroke="blue" points="528.224,-175.5 675.224,-175.5 "/>
<text text-anchor="middle" x="601.724" y="-160.3" font-family="Times,serif" font-size="14.00">6: output_doc_root</text>
<polyline fill="none" stroke="blue" points="528.224,-152.5 675.224,-152.5 "/>
<text text-anchor="middle" x="601.724" y="-137.3" font-family="Times,serif" font-size="14.00">7: site_id</text>
<polyline fill="none" stroke="blue" points="528.224,-129.5 675.224,-129.5 "/>
<text text-anchor="middle" x="601.724" y="-114.3" font-family="Times,serif" font-size="14.00">8: upper_name</text>
</g>
<!-- assets&#45;&gt;designs -->
<g id="edge2" class="edge"><title>assets:port2&#45;&gt;designs:port0:w</title>
<path fill="none" stroke="grey" d="M191.224,-617.5C323.928,-617.5 182.469,-434.537 260.224,-327 322.334,-241.102 358.498,-201.037 460.177,-198.617"/>
<polygon fill="grey" stroke="grey" points="460.266,-202.116 470.224,-198.5 460.184,-195.117 460.266,-202.116"/>
</g>
<!-- pages -->
<g id="node11" class="node"><title>pages</title>
<path fill="none" stroke="blue" d="M281.724,-327.5C281.724,-327.5 402.724,-327.5 402.724,-327.5 408.724,-327.5 414.724,-333.5 414.724,-339.5 414.724,-339.5 414.724,-476.5 414.724,-476.5 414.724,-482.5 408.724,-488.5 402.724,-488.5 402.724,-488.5 281.724,-488.5 281.724,-488.5 275.724,-488.5 269.724,-482.5 269.724,-476.5 269.724,-476.5 269.724,-339.5 269.724,-339.5 269.724,-333.5 275.724,-327.5 281.724,-327.5"/>
<text text-anchor="middle" x="293.224" y="-404.3" font-family="Times,serif" font-size="14.00">pages</text>
<polyline fill="none" stroke="blue" points="316.724,-327.5 316.724,-488.5 "/>
<text text-anchor="middle" x="365.724" y="-473.3" font-family="Times,serif" font-size="14.00">1: context</text>
<polyline fill="none" stroke="blue" points="316.724,-465.5 414.724,-465.5 "/>
<text text-anchor="middle" x="365.724" y="-450.3" font-family="Times,serif" font-size="14.00">2: design_id</text>
<polyline fill="none" stroke="blue" points="316.724,-442.5 414.724,-442.5 "/>
<text text-anchor="middle" x="365.724" y="-427.3" font-family="Times,serif" font-size="14.00">3: homepage</text>
<polyline fill="none" stroke="blue" points="316.724,-419.5 414.724,-419.5 "/>
<text text-anchor="middle" x="365.724" y="-404.3" font-family="Times,serif" font-size="14.00">4: id</text>
<polyline fill="none" stroke="blue" points="316.724,-396.5 414.724,-396.5 "/>
<text text-anchor="middle" x="365.724" y="-381.3" font-family="Times,serif" font-size="14.00">5: name</text>
<polyline fill="none" stroke="blue" points="316.724,-373.5 414.724,-373.5 "/>
<text text-anchor="middle" x="365.724" y="-358.3" font-family="Times,serif" font-size="14.00">6: site_id</text>
<polyline fill="none" stroke="blue" points="316.724,-350.5 414.724,-350.5 "/>
<text text-anchor="middle" x="365.724" y="-335.3" font-family="Times,serif" font-size="14.00">7: upper_name</text>
</g>
<!-- assets&#45;&gt;pages -->
<g id="edge7" class="edge"><title>assets:port4&#45;&gt;pages:port0:w</title>
<path fill="none" stroke="grey" d="M191.224,-571.5C237.631,-571.5 236.749,-531.57 255.224,-489 261.008,-475.674 254.253,-432.15 260.495,-415.019"/>
<polygon fill="grey" stroke="grey" points="263.174,-417.314 268.224,-408 258.468,-412.131 263.174,-417.314"/>
</g>
<!-- sites -->
<g id="node13" class="node"><title>sites</title>
<path fill="none" stroke="blue" d="M426.724,-0.5C426.724,-0.5 541.724,-0.5 541.724,-0.5 547.724,-0.5 553.724,-6.5 553.724,-12.5 553.724,-12.5 553.724,-57.5 553.724,-57.5 553.724,-63.5 547.724,-69.5 541.724,-69.5 541.724,-69.5 426.724,-69.5 426.724,-69.5 420.724,-69.5 414.724,-63.5 414.724,-57.5 414.724,-57.5 414.724,-12.5 414.724,-12.5 414.724,-6.5 420.724,-0.5 426.724,-0.5"/>
<text text-anchor="middle" x="435.224" y="-31.3" font-family="Times,serif" font-size="14.00">sites</text>
<polyline fill="none" stroke="blue" points="455.724,-0.5 455.724,-69.5 "/>
<text text-anchor="middle" x="504.724" y="-54.3" font-family="Times,serif" font-size="14.00">1: id</text>
<polyline fill="none" stroke="blue" points="455.724,-46.5 553.724,-46.5 "/>
<text text-anchor="middle" x="504.724" y="-31.3" font-family="Times,serif" font-size="14.00">2: name</text>
<polyline fill="none" stroke="blue" points="455.724,-23.5 553.724,-23.5 "/>
<text text-anchor="middle" x="504.724" y="-8.3" font-family="Times,serif" font-size="14.00">3: upper_name</text>
</g>
<!-- assets&#45;&gt;sites -->
<g id="edge9" class="edge"><title>assets:port5&#45;&gt;sites:port0:w</title>
<path fill="none" stroke="grey" d="M138.224,-535.5C138.224,-482.013 56.8511,-533.533 27.2244,-489 -12.6565,-429.054 -4.84184,-391.465 27.2244,-327 121.484,-137.502 195.686,-38.2275 402.934,-35.0774"/>
<polygon fill="grey" stroke="grey" points="403.251,-38.5752 413.224,-35 403.198,-31.5754 403.251,-38.5752"/>
</g>
<!-- contents -->
<g id="node3" class="node"><title>contents</title>
<path fill="none" stroke="blue" d="M347.724,-525.5C347.724,-525.5 472.724,-525.5 472.724,-525.5 478.724,-525.5 484.724,-531.5 484.724,-537.5 484.724,-537.5 484.724,-651.5 484.724,-651.5 484.724,-657.5 478.724,-663.5 472.724,-663.5 472.724,-663.5 347.724,-663.5 347.724,-663.5 341.724,-663.5 335.724,-657.5 335.724,-651.5 335.724,-651.5 335.724,-537.5 335.724,-537.5 335.724,-531.5 341.724,-525.5 347.724,-525.5"/>
<text text-anchor="middle" x="368.224" y="-590.8" font-family="Times,serif" font-size="14.00">contents</text>
<polyline fill="none" stroke="blue" points="400.724,-525.5 400.724,-663.5 "/>
<text text-anchor="middle" x="442.724" y="-648.3" font-family="Times,serif" font-size="14.00">1: body_text</text>
<polyline fill="none" stroke="blue" points="400.724,-640.5 484.724,-640.5 "/>
<text text-anchor="middle" x="442.724" y="-625.3" font-family="Times,serif" font-size="14.00">2: design_id</text>
<polyline fill="none" stroke="blue" points="400.724,-617.5 484.724,-617.5 "/>
<text text-anchor="middle" x="442.724" y="-602.3" font-family="Times,serif" font-size="14.00">3: head_text</text>
<polyline fill="none" stroke="blue" points="400.724,-594.5 484.724,-594.5 "/>
<text text-anchor="middle" x="442.724" y="-579.3" font-family="Times,serif" font-size="14.00">4: id</text>
<polyline fill="none" stroke="blue" points="400.724,-571.5 484.724,-571.5 "/>
<text text-anchor="middle" x="442.724" y="-556.3" font-family="Times,serif" font-size="14.00">5: page_id</text>
<polyline fill="none" stroke="blue" points="400.724,-548.5 484.724,-548.5 "/>
<text text-anchor="middle" x="442.724" y="-533.3" font-family="Times,serif" font-size="14.00">6: site_id</text>
</g>
<!-- contents&#45;&gt;designs -->
<g id="edge3" class="edge"><title>contents:port2&#45;&gt;designs:port0:w</title>
<path fill="none" stroke="grey" d="M486.224,-629.5C508.079,-629.5 456.821,-270.932 465.824,-207.903"/>
<polygon fill="grey" stroke="grey" points="469.156,-209.041 470.224,-198.5 462.816,-206.074 469.156,-209.041"/>
</g>
<!-- contents&#45;&gt;pages -->
<g id="edge8" class="edge"><title>contents:port5&#45;&gt;pages:port0:w</title>
<path fill="none" stroke="grey" d="M486.224,-559.5C493.894,-559.5 490.266,-530.78 485.224,-525 421.247,-451.659 332.59,-562.871 269.224,-489 259.748,-477.952 253.173,-431.811 260.52,-414.552"/>
<polygon fill="grey" stroke="grey" points="262.874,-417.145 268.224,-408 258.339,-411.813 262.874,-417.145"/>
</g>
<!-- contents&#45;&gt;sites -->
<g id="edge10" class="edge"><title>contents:port6&#45;&gt;sites:port0:w</title>
<path fill="none" stroke="grey" d="M443.224,-525C443.224,-338.674 468.812,-288.072 429.224,-106 423.372,-79.0835 392.428,-46.5229 403.345,-37.4495"/>
<polygon fill="grey" stroke="grey" points="404.361,-40.8038 413.224,-35 402.676,-34.0095 404.361,-40.8038"/>
</g>
<!-- menu_orientations -->
<g id="node8" class="node"><title>menu_orientations</title>
<path fill="none" stroke="blue" d="M741.224,-12C741.224,-12 899.224,-12 899.224,-12 905.224,-12 911.224,-18 911.224,-24 911.224,-24 911.224,-46 911.224,-46 911.224,-52 905.224,-58 899.224,-58 899.224,-58 741.224,-58 741.224,-58 735.224,-58 729.224,-52 729.224,-46 729.224,-46 729.224,-24 729.224,-24 729.224,-18 735.224,-12 741.224,-12"/>
<text text-anchor="middle" x="790.224" y="-31.3" font-family="Times,serif" font-size="14.00">menu_orientations</text>
<polyline fill="none" stroke="blue" points="851.224,-12 851.224,-58 "/>
<text text-anchor="middle" x="881.224" y="-42.8" font-family="Times,serif" font-size="14.00">1: id</text>
<polyline fill="none" stroke="blue" points="851.224,-35 911.224,-35 "/>
<text text-anchor="middle" x="881.224" y="-19.8" font-family="Times,serif" font-size="14.00">2: name</text>
</g>
<!-- designs&#45;&gt;menu_orientations -->
<g id="edge5" class="edge"><title>designs:port2&#45;&gt;menu_orientations:port0:w</title>
<path fill="none" stroke="grey" d="M676.224,-256.5C761.389,-256.5 700.958,-152.957 720.224,-70 721.367,-65.0821 721.072,-52.3726 722.723,-43.7021"/>
<polygon fill="grey" stroke="grey" points="725.839,-45.3229 728.224,-35 719.922,-41.5824 725.839,-45.3229"/>
</g>
<!-- os_types -->
<g id="node10" class="node"><title>os_types</title>
<path fill="none" stroke="blue" d="M599.224,-12C599.224,-12 699.224,-12 699.224,-12 705.224,-12 711.224,-18 711.224,-24 711.224,-24 711.224,-46 711.224,-46 711.224,-52 705.224,-58 699.224,-58 699.224,-58 599.224,-58 599.224,-58 593.224,-58 587.224,-52 587.224,-46 587.224,-46 587.224,-24 587.224,-24 587.224,-18 593.224,-12 599.224,-12"/>
<text text-anchor="middle" x="619.224" y="-31.3" font-family="Times,serif" font-size="14.00">os_types</text>
<polyline fill="none" stroke="blue" points="651.224,-12 651.224,-58 "/>
<text text-anchor="middle" x="681.224" y="-42.8" font-family="Times,serif" font-size="14.00">1: id</text>
<polyline fill="none" stroke="blue" points="651.224,-35 711.224,-35 "/>
<text text-anchor="middle" x="681.224" y="-19.8" font-family="Times,serif" font-size="14.00">2: name</text>
</g>
<!-- designs&#45;&gt;os_types -->
<g id="edge6" class="edge"><title>designs:port4&#45;&gt;os_types:port0:w</title>
<path fill="none" stroke="grey" d="M676.224,-210.5C722.671,-210.5 699.212,-145.773 675.224,-106 652.271,-67.9411 610.802,-96.1755 587.224,-58.5 584.452,-54.0692 581.588,-48.1942 580.725,-43.4269"/>
<polygon fill="grey" stroke="grey" points="583.69,-45.2872 586.224,-35 577.828,-41.4613 583.69,-45.2872"/>
</g>
<!-- designs&#45;&gt;sites -->
<g id="edge11" class="edge"><title>designs:port7&#45;&gt;sites:port0:w</title>
<path fill="none" stroke="grey" d="M676.224,-140.5C691.564,-140.5 685.47,-117.417 675.224,-106 597.017,-18.8472 492.414,-157.169 414.224,-70 406.918,-61.8547 401.698,-47.8603 404.653,-40.2689"/>
<polygon fill="grey" stroke="grey" points="406.538,-43.2184 413.224,-35 402.872,-37.2549 406.538,-43.2184"/>
</g>
<!-- event_types -->
<g id="node5" class="node"><title>event_types</title>
<path fill="none" stroke="blue" d="M514.724,-560C514.724,-560 671.724,-560 671.724,-560 677.724,-560 683.724,-566 683.724,-572 683.724,-572 683.724,-617 683.724,-617 683.724,-623 677.724,-629 671.724,-629 671.724,-629 514.724,-629 514.724,-629 508.724,-629 502.724,-623 502.724,-617 502.724,-617 502.724,-572 502.724,-572 502.724,-566 508.724,-560 514.724,-560"/>
<text text-anchor="middle" x="544.224" y="-590.8" font-family="Times,serif" font-size="14.00">event_types</text>
<polyline fill="none" stroke="blue" points="585.724,-560 585.724,-629 "/>
<text text-anchor="middle" x="634.724" y="-613.8" font-family="Times,serif" font-size="14.00">1: id</text>
<polyline fill="none" stroke="blue" points="585.724,-606 683.724,-606 "/>
<text text-anchor="middle" x="634.724" y="-590.8" font-family="Times,serif" font-size="14.00">2: name</text>
<polyline fill="none" stroke="blue" points="585.724,-583 683.724,-583 "/>
<text text-anchor="middle" x="634.724" y="-567.8" font-family="Times,serif" font-size="14.00">3: upper_name</text>
</g>
<!-- events -->
<g id="node6" class="node"><title>events</title>
<path fill="none" stroke="blue" d="M714.224,-560C714.224,-560 832.224,-560 832.224,-560 838.224,-560 844.224,-566 844.224,-572 844.224,-572 844.224,-617 844.224,-617 844.224,-623 838.224,-629 832.224,-629 832.224,-629 714.224,-629 714.224,-629 708.224,-629 702.224,-623 702.224,-617 702.224,-617 702.224,-572 702.224,-572 702.224,-566 708.224,-560 714.224,-560"/>
<text text-anchor="middle" x="728.724" y="-590.8" font-family="Times,serif" font-size="14.00">events</text>
<polyline fill="none" stroke="blue" points="755.224,-560 755.224,-629 "/>
<text text-anchor="middle" x="799.724" y="-613.8" font-family="Times,serif" font-size="14.00">1: id</text>
<polyline fill="none" stroke="blue" points="755.224,-606 844.224,-606 "/>
<text text-anchor="middle" x="799.724" y="-590.8" font-family="Times,serif" font-size="14.00">2: id_list</text>
<polyline fill="none" stroke="blue" points="755.224,-583 844.224,-583 "/>
<text text-anchor="middle" x="799.724" y="-567.8" font-family="Times,serif" font-size="14.00">3: timestamp</text>
</g>
<!-- log -->
<g id="node7" class="node"><title>log</title>
<path fill="none" stroke="blue" d="M874.224,-548.5C874.224,-548.5 972.224,-548.5 972.224,-548.5 978.224,-548.5 984.224,-554.5 984.224,-560.5 984.224,-560.5 984.224,-628.5 984.224,-628.5 984.224,-634.5 978.224,-640.5 972.224,-640.5 972.224,-640.5 874.224,-640.5 874.224,-640.5 868.224,-640.5 862.224,-634.5 862.224,-628.5 862.224,-628.5 862.224,-560.5 862.224,-560.5 862.224,-554.5 868.224,-548.5 874.224,-548.5"/>
<text text-anchor="middle" x="878.724" y="-590.8" font-family="Times,serif" font-size="14.00">log</text>
<polyline fill="none" stroke="blue" points="895.224,-548.5 895.224,-640.5 "/>
<text text-anchor="middle" x="939.724" y="-625.3" font-family="Times,serif" font-size="14.00">1: id</text>
<polyline fill="none" stroke="blue" points="895.224,-617.5 984.224,-617.5 "/>
<text text-anchor="middle" x="939.724" y="-602.3" font-family="Times,serif" font-size="14.00">2: level</text>
<polyline fill="none" stroke="blue" points="895.224,-594.5 984.224,-594.5 "/>
<text text-anchor="middle" x="939.724" y="-579.3" font-family="Times,serif" font-size="14.00">3: message</text>
<polyline fill="none" stroke="blue" points="895.224,-571.5 984.224,-571.5 "/>
<text text-anchor="middle" x="939.724" y="-556.3" font-family="Times,serif" font-size="14.00">4: timestamp</text>
</g>
<!-- menus -->
<g id="node9" class="node"><title>menus</title>
<path fill="none" stroke="blue" d="M1014.72,-525.5C1014.72,-525.5 1131.72,-525.5 1131.72,-525.5 1137.72,-525.5 1143.72,-531.5 1143.72,-537.5 1143.72,-537.5 1143.72,-651.5 1143.72,-651.5 1143.72,-657.5 1137.72,-663.5 1131.72,-663.5 1131.72,-663.5 1014.72,-663.5 1014.72,-663.5 1008.72,-663.5 1002.72,-657.5 1002.72,-651.5 1002.72,-651.5 1002.72,-537.5 1002.72,-537.5 1002.72,-531.5 1008.72,-525.5 1014.72,-525.5"/>
<text text-anchor="middle" x="1029.22" y="-590.8" font-family="Times,serif" font-size="14.00">menus</text>
<polyline fill="none" stroke="blue" points="1055.72,-525.5 1055.72,-663.5 "/>
<text text-anchor="middle" x="1099.72" y="-648.3" font-family="Times,serif" font-size="14.00">1: context</text>
<polyline fill="none" stroke="blue" points="1055.72,-640.5 1143.72,-640.5 "/>
<text text-anchor="middle" x="1099.72" y="-625.3" font-family="Times,serif" font-size="14.00">2: id</text>
<polyline fill="none" stroke="blue" points="1055.72,-617.5 1143.72,-617.5 "/>
<text text-anchor="middle" x="1099.72" y="-602.3" font-family="Times,serif" font-size="14.00">3: mother_id</text>
<polyline fill="none" stroke="blue" points="1055.72,-594.5 1143.72,-594.5 "/>
<text text-anchor="middle" x="1099.72" y="-579.3" font-family="Times,serif" font-size="14.00">4: name</text>
<polyline fill="none" stroke="blue" points="1055.72,-571.5 1143.72,-571.5 "/>
<text text-anchor="middle" x="1099.72" y="-556.3" font-family="Times,serif" font-size="14.00">5: page_id</text>
<polyline fill="none" stroke="blue" points="1055.72,-548.5 1143.72,-548.5 "/>
<text text-anchor="middle" x="1099.72" y="-533.3" font-family="Times,serif" font-size="14.00">6: unique_id</text>
</g>
<!-- pages&#45;&gt;designs -->
<g id="edge4" class="edge"><title>pages:port2&#45;&gt;designs:port0:w</title>
<path fill="none" stroke="grey" d="M416.224,-454C528.661,-454 365.006,-214.219 460.187,-199.233"/>
<polygon fill="grey" stroke="grey" points="460.506,-202.719 470.224,-198.5 459.996,-195.738 460.506,-202.719"/>
</g>
<!-- pages&#45;&gt;sites -->
<g id="edge12" class="edge"><title>pages:port6&#45;&gt;sites:port0:w</title>
<path fill="none" stroke="grey" d="M416.224,-362C449.366,-362 389.326,-89.9545 406.087,-42.134"/>
<polygon fill="grey" stroke="grey" points="408.626,-44.545 413.224,-35 403.677,-39.5942 408.626,-44.545"/>
</g>
<!-- sessions -->
<g id="node12" class="node"><title>sessions</title>
<path fill="none" stroke="blue" d="M1174.22,-571.5C1174.22,-571.5 1294.22,-571.5 1294.22,-571.5 1300.22,-571.5 1306.22,-577.5 1306.22,-583.5 1306.22,-583.5 1306.22,-605.5 1306.22,-605.5 1306.22,-611.5 1300.22,-617.5 1294.22,-617.5 1294.22,-617.5 1174.22,-617.5 1174.22,-617.5 1168.22,-617.5 1162.22,-611.5 1162.22,-605.5 1162.22,-605.5 1162.22,-583.5 1162.22,-583.5 1162.22,-577.5 1168.22,-571.5 1174.22,-571.5"/>
<text text-anchor="middle" x="1193.22" y="-590.8" font-family="Times,serif" font-size="14.00">sessions</text>
<polyline fill="none" stroke="blue" points="1224.22,-571.5 1224.22,-617.5 "/>
<text text-anchor="middle" x="1265.22" y="-602.3" font-family="Times,serif" font-size="14.00">1: a_session</text>
<polyline fill="none" stroke="blue" points="1224.22,-594.5 1306.22,-594.5 "/>
<text text-anchor="middle" x="1265.22" y="-579.3" font-family="Times,serif" font-size="14.00">2: id</text>
</g>
</g>
</svg>
